<svg width="20" height="21" viewBox="0 0 20 21" fill="none" xmlns="http://www.w3.org/2000/svg">
<path d="M6.88595 5.43938C7.06891 5.44428 7.27175 5.45418 7.46474 5.88256C7.59271 6.16774 7.80829 6.69274 7.9839 7.12041C8.12055 7.45319 8.233 7.72704 8.26114 7.78309C8.32544 7.91109 8.36502 8.05879 8.28093 8.23109C8.27102 8.25141 8.26165 8.27085 8.25264 8.28956C8.18518 8.42956 8.13717 8.52919 8.02373 8.65947C7.97709 8.71301 7.9285 8.77172 7.88008 8.83022C7.79494 8.93311 7.71035 9.03533 7.63785 9.10755C7.50924 9.23546 7.37563 9.37344 7.52402 9.62944C7.6725 9.88543 8.19192 10.7274 8.95868 11.4069C9.783 12.1408 10.4998 12.45 10.8622 12.6064C10.9325 12.6367 10.9895 12.6613 11.0313 12.6821C11.2886 12.8101 11.4419 12.7904 11.5903 12.6181C11.7388 12.4457 12.2334 11.8697 12.4066 11.6137C12.5748 11.3577 12.7479 11.3971 12.9854 11.4857C13.2228 11.5743 14.4892 12.1947 14.7464 12.3226C14.7972 12.348 14.8448 12.3708 14.8889 12.3919C15.0678 12.4777 15.1895 12.5361 15.2411 12.623C15.3054 12.7313 15.3054 13.2434 15.0927 13.8441C14.8751 14.4448 13.8263 15.0209 13.3514 15.0652C13.3064 15.0694 13.2617 15.0748 13.2156 15.0804C12.7804 15.133 12.228 15.1999 10.2596 14.4251C7.83424 13.4713 6.23322 11.1049 5.90953 10.6265C5.88398 10.5887 5.86638 10.5627 5.85698 10.5501L5.8515 10.5428C5.70423 10.3457 4.80328 9.1402 4.80328 7.89638C4.80328 6.70635 5.38951 6.08679 5.65689 5.8042C5.67384 5.78629 5.6895 5.76974 5.70366 5.75447C5.94107 5.49848 6.21814 5.43448 6.39125 5.43448C6.56445 5.43448 6.73756 5.43448 6.88595 5.43938Z" fill="#C0304F"/>
<path fill-rule="evenodd" clip-rule="evenodd" d="M0.18418 19.601C0.102363 19.8979 0.372852 20.1721 0.6709 20.0942L5.27824 18.8908C6.7326 19.6786 8.37 20.0971 10.0371 20.0971H10.0421C15.5281 20.0971 20 15.651 20 10.1858C20 7.53688 18.966 5.04547 17.0863 3.17444C15.2065 1.3035 12.7084 0.269531 10.042 0.269531C4.55607 0.269531 0.0841071 4.71558 0.0841071 10.1809C0.0834837 11.9195 0.542402 13.6277 1.41479 15.134L0.18418 19.601ZM2.86092 15.5324C2.96774 15.1447 2.91437 14.7303 2.71281 14.3823C1.97266 13.1043 1.58358 11.655 1.58411 10.1809C1.58411 5.55112 5.37738 1.76953 10.042 1.76953C12.3119 1.76953 14.4296 2.64652 16.0281 4.23758C17.6248 5.8269 18.5 7.93564 18.5 10.1858C18.5 14.8155 14.7068 18.5971 10.0421 18.5971H10.0371C8.62061 18.5971 7.22863 18.2413 5.99266 17.5719C5.65814 17.3907 5.26726 17.3433 4.89916 17.4395L2.13676 18.161L2.86092 15.5324Z" fill="#C0304F"/>
</svg>
