<svg width="238" height="73" viewBox="0 0 238 73" fill="#F6F2EB" xmlns="http://www.w3.org/2000/svg">
<circle cx="170.609" cy="10.3431" r="4.20829" fill="#232526"/>
<path d="M84.3716 24.5065C84.4687 25.7036 84.8893 26.7714 85.6335 27.7096C86.3777 28.6479 87.3159 29.4245 88.4484 30.0392C89.5808 30.6539 90.8264 31.2525 92.1854 31.8349C93.5443 32.4173 94.887 33.032 96.2135 33.6791C97.5724 34.2939 98.8019 34.9895 99.902 35.766C101.034 36.5425 101.94 37.5455 102.62 38.775C103.299 39.9721 103.639 41.3472 103.639 42.9003C103.639 45.974 102.458 48.4329 100.096 50.2772C97.7666 52.089 94.7414 52.995 91.0206 52.995C87.2674 52.995 84.0319 52.1861 81.3141 50.5684C80.667 50.1801 80.117 50.1639 79.664 50.5198C79.211 50.8757 78.8875 51.3772 78.6934 52.0243L77.7713 42.1237C78.0948 42.9003 78.4345 43.6444 78.7904 44.3562C79.1463 45.068 79.7125 45.9578 80.4891 47.0255C81.2656 48.0609 82.0906 48.9506 82.9642 49.6948C83.8701 50.439 85.0349 51.086 86.4585 51.6361C87.8822 52.1538 89.4028 52.4126 91.0206 52.4126C93.3178 52.4126 95.162 51.8787 96.5533 50.811C97.9445 49.7433 98.6078 48.1903 98.5431 46.1519C98.5107 45.0195 98.2034 43.9842 97.621 43.0459C97.0386 42.0752 96.2782 41.2663 95.34 40.6192C94.434 39.9398 93.3825 39.2765 92.1854 38.6294C90.9882 37.95 89.7749 37.3514 88.5454 36.8337C87.3159 36.316 86.1026 35.7175 84.9055 35.038C83.7407 34.3586 82.673 33.6791 81.7024 32.9997C80.7641 32.2879 79.9876 31.4305 79.3728 30.4275C78.7904 29.4245 78.4507 28.3406 78.3536 27.1758C78.2889 25.8816 78.4831 24.7006 78.936 23.6329C79.4214 22.5652 80.0684 21.6916 80.8773 21.0122C81.6862 20.3004 82.6245 19.7018 83.6922 19.2165C84.7923 18.7312 85.9085 18.3914 87.0409 18.1973C88.1733 17.9708 89.2896 17.8576 90.3897 17.8576C93.3016 17.8576 95.9385 18.6503 98.3004 20.2357C98.721 20.4622 99.0608 20.4945 99.3196 20.3327C99.5784 20.171 99.7726 19.9445 99.902 19.6533L100.048 19.168L100.63 28.0494C100.339 26.8846 99.9182 25.7845 99.3681 24.7492C98.8505 23.7138 98.1872 22.7108 97.3783 21.7402C96.5694 20.7372 95.5664 19.9445 94.3693 19.3621C93.1722 18.7473 91.8456 18.44 90.3897 18.44C88.7072 18.44 87.2512 18.9577 86.0217 19.993C84.8246 20.996 84.2746 22.5005 84.3716 24.5065ZM136.162 18.44C136.098 18.5694 135.92 18.7312 135.629 18.9253C135.337 19.0871 135.062 19.265 134.804 19.4592C134.545 19.6209 134.302 19.8959 134.076 20.2842C133.849 20.6725 133.736 21.1416 133.736 21.6916V49.1609C133.736 49.8404 133.898 50.4066 134.221 50.8596C134.577 51.2802 134.965 51.6199 135.386 51.8787C135.839 52.1052 136.098 52.2832 136.162 52.4126H125.243C125.34 52.2832 125.599 52.1052 126.019 51.8787C126.472 51.6199 126.86 51.2802 127.184 50.8596C127.508 50.4066 127.669 49.8404 127.669 49.1609V36.0087H113.935V49.1609C113.935 49.8404 114.096 50.4066 114.42 50.8596C114.744 51.2802 115.116 51.6199 115.536 51.8787C115.989 52.1052 116.264 52.2832 116.361 52.4126H105.441C105.539 52.2832 105.797 52.1052 106.218 51.8787C106.671 51.6199 107.059 51.2802 107.383 50.8596C107.706 50.4066 107.868 49.8404 107.868 49.1609V21.6916C107.868 21.1416 107.755 20.6725 107.528 20.2842C107.334 19.8959 107.092 19.6209 106.8 19.4592C106.542 19.265 106.267 19.0871 105.975 18.9253C105.717 18.7312 105.539 18.5694 105.441 18.44H116.361C116.264 18.5694 115.989 18.7635 115.536 19.0224C115.116 19.2488 114.744 19.5886 114.42 20.0415C114.096 20.4622 113.935 21.0122 113.935 21.6916V35.4263H127.669V21.6916C127.669 21.2387 127.605 20.8504 127.475 20.5269C127.346 20.2033 127.168 19.9445 126.941 19.7503C126.747 19.5239 126.537 19.3459 126.31 19.2165C126.084 19.0871 125.874 18.9577 125.679 18.8282C125.485 18.6665 125.34 18.537 125.243 18.44H136.162ZM173.87 39.4545C173.87 40.1339 174.032 40.7001 174.355 41.1531C174.679 41.5737 175.051 41.9134 175.472 42.1723C175.925 42.3988 176.2 42.5767 176.297 42.7061H165.377C165.442 42.5767 165.684 42.3988 166.105 42.1723C166.558 41.9134 166.946 41.5737 167.27 41.1531C167.626 40.7001 167.804 40.1339 167.804 39.4545V21.6916C167.804 21.2387 167.723 20.8504 167.561 20.5269C167.432 20.2033 167.254 19.9445 167.027 19.7503C166.833 19.5239 166.623 19.3459 166.396 19.2165C166.202 19.0871 165.992 18.9577 165.765 18.8282C165.571 18.6665 165.442 18.537 165.377 18.44H176.297C176.2 18.5694 175.925 18.7635 175.472 19.0224C175.051 19.2488 174.679 19.5886 174.355 20.0415C174.032 20.4622 173.87 21.0122 173.87 21.6916V39.4545ZM169.26 49.1609C170.166 49.8404 171.185 50.4066 172.317 50.8596C173.45 51.2802 174.355 51.6037 175.035 51.8302C175.747 52.0567 176.167 52.2508 176.297 52.4126H165.086L150.575 36.9793C150.251 37.0117 149.928 37.0279 149.604 37.0279H146.352V49.1609C146.352 49.8404 146.514 50.4066 146.838 50.8596C147.161 51.2802 147.533 51.6199 147.954 51.8787C148.407 52.1052 148.682 52.2832 148.779 52.4126H137.859C137.956 52.2832 138.215 52.1052 138.636 51.8787C139.089 51.6199 139.477 51.2802 139.8 50.8596C140.124 50.4066 140.286 49.8404 140.286 49.1609V21.6916C140.286 21.0122 140.124 20.4622 139.8 20.0415C139.477 19.5886 139.089 19.2488 138.636 19.0224C138.215 18.7635 137.956 18.5694 137.859 18.44H148.779C153.341 18.44 156.771 19.2812 159.068 20.9637C161.365 22.6461 162.514 25.0404 162.514 28.1464C162.514 30.4113 161.591 32.3526 159.747 33.9703C157.903 35.5557 155.234 36.5264 151.739 36.8823L169.26 49.1609ZM148.779 36.4455C151.432 36.4455 153.309 35.8145 154.409 34.5527C155.509 33.2909 156.059 31.1554 156.059 28.1464C156.059 25.0404 155.493 22.7432 154.36 21.2548C153.228 19.7665 151.367 19.0224 148.779 19.0224H146.352V36.4455H148.779ZM202.808 18.44H208.292C208.195 18.5694 208.001 18.7312 207.71 18.9253C207.451 19.0871 207.176 19.265 206.885 19.4592C206.626 19.6209 206.383 19.8959 206.157 20.2842C205.963 20.6725 205.865 21.1416 205.865 21.6916V52.4126H205.235L180.968 21.4004V49.1609C180.968 49.8404 181.13 50.4066 181.454 50.8596C181.81 51.2802 182.198 51.6199 182.619 51.8787C183.071 52.1052 183.33 52.2832 183.395 52.4126H177.959C178.056 52.2832 178.315 52.1052 178.736 51.8787C179.189 51.6199 179.577 51.2802 179.901 50.8596C180.224 50.4066 180.386 49.8404 180.386 49.1609V21.6916C180.386 21.0122 180.224 20.4622 179.901 20.0415C179.577 19.5886 179.189 19.2488 178.736 19.0224C178.315 18.7635 178.056 18.5694 177.959 18.44H185.433L205.235 43.1429V21.6916C205.235 21.1416 205.121 20.6725 204.895 20.2842C204.701 19.8959 204.474 19.6209 204.215 19.4592C203.957 19.265 203.682 19.0871 203.39 18.9253C203.099 18.7312 202.905 18.5694 202.808 18.44ZM223.64 51.8302C224.87 51.8302 225.986 51.6523 226.989 51.2964C228.024 50.9081 228.882 50.4713 229.561 49.986C230.24 49.4683 230.888 48.805 231.502 47.9962C232.149 47.1549 232.651 46.4269 233.007 45.8122C233.363 45.1975 233.751 44.4371 234.172 43.5312L232.133 52.4126H209.905C210.002 52.2832 210.261 52.1052 210.682 51.8787C211.135 51.6199 211.523 51.2802 211.847 50.8596C212.17 50.4066 212.332 49.8404 212.332 49.1609V21.6916C212.332 21.1416 212.219 20.6725 211.992 20.2842C211.798 19.8959 211.556 19.6209 211.264 19.4592C211.005 19.265 210.73 19.0871 210.439 18.9253C210.18 18.7312 210.002 18.5694 209.905 18.44H231.357L232.958 26.1081C232.894 26.011 232.796 25.8492 232.667 25.6228C232.117 24.6845 231.68 23.9888 231.357 23.5359C231.066 23.0505 230.613 22.4682 229.998 21.7887C229.383 21.0769 228.784 20.5754 228.202 20.2842C227.62 19.9607 226.859 19.6856 225.921 19.4592C225.015 19.2003 223.996 19.0709 222.864 19.0709H218.399V34.4071H223.689C224.336 34.4071 224.87 34.1483 225.29 33.6306C225.743 33.1129 226.083 32.5143 226.309 31.8349C226.568 31.1231 226.762 30.7025 226.892 30.5731V38.8721C226.762 38.7427 226.601 38.4515 226.406 37.9985C226.245 37.5132 226.067 37.0764 225.873 36.6881C225.711 36.2675 225.436 35.8954 225.048 35.5719C224.659 35.216 224.19 35.038 223.64 35.038H218.399V51.8302H223.64Z" fill="#232526"/>
<path d="M49.2148 36.0454C51.3529 36.1037 54.4247 37.6188 55.7923 41.8827C55.8926 42.1954 56.1784 42.4087 56.5065 42.4221C57.7146 42.4712 60.365 42.8559 60.5626 45.5727" stroke="#232526" stroke-width="0.606833" stroke-linecap="round"/>
<path d="M4.30859 38.412C4.63224 37.0972 5.84995 34.7831 8.13164 36.0453C8.13164 36.2274 7.58549 29.4308 13.8966 30.7052" stroke="#232526" stroke-width="0.606833" stroke-linecap="round"/>
<path d="M5.88672 49.6388C6.39241 48.2026 7.85286 45.7065 9.64909 47.2114C9.64909 47.2721 8.98157 40.9611 15.5961 41.8106" stroke="#232526" stroke-width="0.606833" stroke-linecap="round"/>
<path d="M46.5449 22.21C49.1745 22.5538 54.3367 24.5281 53.9483 29.674C53.8269 29.7347 58.3175 28.339 59.5918 32.4654" stroke="#232526" stroke-width="0.606833" stroke-linecap="round"/>
<path d="M31.434 7.15821C22.9738 7.6838 14.1837 11.4853 8.48017 17.7559C2.77663 24.0266 -0.259038 32.2729 0.0173447 40.745C0.293727 49.217 3.86041 57.2479 9.96052 63.1335C16.0606 69.0191 24.214 72.2962 32.6905 72.2692C41.167 72.2423 49.2994 68.9135 55.362 62.9893C61.4246 57.065 64.9401 49.0116 65.1627 40.538C65.3852 32.0643 62.2972 23.8375 56.5539 17.6032C50.8107 11.3689 42.264 7.63001 33.8006 7.1582L34.2865 9.19547C42.2168 9.63756 49.6628 13.1523 55.0443 18.9939C60.4258 24.8356 63.3193 32.5442 63.1108 40.4841C62.9022 48.4239 59.6081 55.9701 53.9274 61.5212C48.2467 67.0723 40.6266 70.1914 32.684 70.2166C24.7414 70.2418 17.1016 67.1712 11.3857 61.6564C5.66988 56.1415 2.32787 48.6164 2.06889 40.678C1.80992 32.7397 4.65437 25.0128 9.99864 19.1371C15.3429 13.2614 22.7664 9.69937 30.6937 9.20689L31.434 7.15821Z" fill="#232526"/>
<path d="M16.2634 51.6413L7.70703 57.4669L7.94976 58.5592L9.46685 60.319L15.6565 65.5984L23.242 69.7249L29.553 71.3027L37.1385 70.9993L43.5102 69.6035L50.4281 66.0232L57.1033 59.4087L57.5887 57.2848L49.3965 51.3985L47.9401 52.3695L41.8111 47.5755V45.6336H40.7188V41.3251L41.3256 40.1114L40.5974 40.2328L39.2624 29.856L38.1701 39.8687L37.1385 39.5046V33.1329C36.2646 33.23 33.7402 31.2719 32.5872 30.2807C31.6163 31.64 29.2294 32.7485 28.1573 33.1329V39.5046L27.2471 39.9901L25.9727 29.856L24.7591 40.1114H23.9702L24.577 41.3251V45.6336H23.4847V47.7575L17.477 52.4302L16.2634 51.6413Z" fill="#232526"/>
<rect x="32.2832" width="0.7282" height="6.31107" fill="#232526"/>
<rect x="30.3418" y="1.94141" width="4.61193" height="0.849567" fill="#232526"/>
<path d="M27.125 47.3932V70.0281H28.278V44.0557H27.7318V47.3932H27.125Z" fill="#ECF2FF"/>
<path d="M38.291 47.3932V70.0281H37.138V44.0557H37.6842V47.3932H38.291Z" fill="#ECF2FF"/>
<path d="M32.1621 49.6992V64.8094H33.0117V49.6992C33.0117 49.4646 32.8215 49.2744 32.5869 49.2744C32.3523 49.2744 32.1621 49.4646 32.1621 49.6992Z" fill="#ECF2FF"/>
<path d="M24.3336 68.2074C24.3336 68.3079 24.4151 68.3894 24.5156 68.3894C24.6162 68.3894 24.6977 68.3079 24.6977 68.2074H24.3336ZM24.3336 47.6357V68.2074H24.6977V47.6357H24.3336Z" fill="#ECF2FF"/>
<path d="M40.7183 68.6929C40.7183 68.7935 40.7998 68.875 40.9004 68.875C41.0009 68.875 41.0824 68.7935 41.0824 68.6929L40.7183 68.6929ZM40.7183 47.8179L40.7183 68.6929L41.0824 68.6929L41.0824 47.8179L40.7183 47.8179Z" fill="#ECF2FF"/>
<path d="M8.98047 58.3772L16.0197 53.2191L17.4155 54.2507L23.4838 49.1533" stroke="#ECF2FF" stroke-width="0.485467"/>
<path d="M56.3145 58.2561L49.2752 53.098L47.8795 54.1296L41.8111 49.0322" stroke="#ECF2FF" stroke-width="0.485467"/>
<path d="M29.4316 35.0134V39.0185H30.0385V35.013C30.0385 34.8455 29.9026 34.71 29.7351 34.71C29.5675 34.71 29.4316 34.8458 29.4316 35.0134Z" fill="#ECF2FF"/>
<path d="M35.3184 35.0134V39.0185H35.9252V35.013C35.9252 34.8455 35.7893 34.71 35.6218 34.71C35.4542 34.71 35.3184 34.8458 35.3184 35.0134Z" fill="#ECF2FF"/>
<path d="M27.7324 32.4048V32.8902C29.3345 32.8902 31.6768 30.7865 32.6478 29.7347C33.8129 31.3853 36.4506 32.5261 37.6238 32.8902V32.4048L36.4101 32.162L32.5871 6.79639L29.0068 32.162L27.7324 32.4048Z" fill="#232526"/>
</svg>
