<svg width="40" height="54" viewBox="0 0 40 54" fill="none" xmlns="http://www.w3.org/2000/svg">
<path d="M17.7485 0.642548C11.2861 1.86907 6.90563 8.0326 7.87448 14.5157C8.11154 16.0411 8.6475 17.6077 9.36898 18.8239C9.5442 19.1228 9.68849 19.3908 9.68849 19.4114C9.68849 19.4424 7.66834 19.463 5.20499 19.463C2.14384 19.463 0.649335 19.5042 0.484425 19.5763C0.340128 19.6382 0.175217 19.8031 0.113376 19.9474C0.0412276 20.1123 0 21.4419 0 24.0599V27.9249L0.257673 28.1723C0.484425 28.4094 0.587494 28.43 1.48419 28.43H2.46335L2.49427 30.8109C2.52519 33.1712 2.52519 33.1918 2.77256 33.3876C3.09207 33.6453 3.64865 33.6453 3.91663 33.3773C4.11246 33.1815 4.12276 33.0372 4.12276 30.8006V28.43H19.9954H35.868V30.8006C35.868 33.0372 35.8784 33.1815 36.0742 33.3773C36.3422 33.6453 36.8987 33.6453 37.2183 33.3876C37.4656 33.1918 37.4656 33.1712 37.4965 30.8109L37.5275 28.43H38.5066C39.4033 28.43 39.5064 28.4094 39.7331 28.1723L39.9908 27.9249V24.0599C39.9908 21.4419 39.9496 20.1123 39.8774 19.9474C39.8156 19.8031 39.6507 19.6382 39.5064 19.5763C39.3415 19.5042 37.847 19.463 34.7858 19.463C32.3225 19.463 30.3023 19.4424 30.3023 19.4217C30.3023 19.3908 30.4672 19.0919 30.6631 18.7518C32.8893 14.9588 32.7347 9.80539 30.2714 6.02276C29.0758 4.19843 27.3236 2.6627 25.3138 1.68355C23.5513 0.828072 22.5 0.580708 20.3046 0.539478C19.0575 0.518864 18.2638 0.549786 17.7485 0.642548ZM22.0053 2.31227C23.8811 2.67301 25.7054 3.60063 27.1278 4.91992C28.1482 5.86815 28.8078 6.73393 29.4056 7.89861C30.2714 9.59925 30.56 10.8258 30.5497 12.815C30.5394 14.0209 30.4878 14.4229 30.2611 15.2887C29.9622 16.443 29.1789 18.1128 28.5811 18.8961L28.1791 19.4114L26.664 19.4424L25.1489 19.4733L25.9013 18.7209C27.6741 16.9584 28.5398 14.7321 28.4058 12.2997C28.2719 9.68171 27.1175 7.50695 25.0561 5.9403C23.5925 4.83746 21.9743 4.31181 19.9954 4.31181C18.0165 4.31181 16.3983 4.83746 14.9347 5.9403C12.8733 7.50695 11.719 9.68171 11.585 12.2997C11.451 14.7321 12.3168 16.9584 14.0895 18.7209L14.8419 19.4733L13.3268 19.4424L11.8117 19.4114L11.4097 18.8961C10.8119 18.1128 10.0286 16.443 9.72972 15.2887C9.50297 14.4229 9.45144 14.0209 9.44113 12.815C9.43082 10.9082 9.70911 9.63017 10.4924 8.07383C11.0387 6.97099 11.5128 6.30104 12.4198 5.36311C14.8935 2.77608 18.4597 1.64232 22.0053 2.31227ZM21.593 6.12583C23.809 6.65148 25.7157 8.42427 26.4475 10.6609C26.7052 11.4648 26.7464 11.7225 26.7361 12.7635C26.7361 13.7839 26.6949 14.0621 26.4475 14.7733C26.0662 15.8762 25.5508 16.7007 24.7366 17.5047C23.9533 18.2777 23.2112 18.7415 22.1392 19.1331C21.459 19.3805 21.2425 19.4114 19.9954 19.4114C18.7483 19.4114 18.5318 19.3805 17.8516 19.1331C16.7796 18.7415 16.0376 18.2777 15.2542 17.4943C14.4606 16.7213 13.9143 15.8349 13.5227 14.7321C13.2856 14.0518 13.2547 13.7839 13.2547 12.7119C13.2547 11.6503 13.2959 11.3617 13.5433 10.6299C14.1102 8.89838 15.3985 7.4245 17.0579 6.63086C18.5834 5.88877 19.9645 5.74447 21.593 6.12583ZM38.3417 23.9465V26.7809H19.9954H1.64911V23.9465V21.1121H19.9954H38.3417V23.9465Z" fill="#C0304F"/>
<path d="M19.4699 7.39351C19.2844 7.54812 19.2122 7.72333 19.171 8.17684C19.1195 8.75402 19.1092 8.76433 18.7175 8.89832C17.7486 9.22814 17.2127 9.94963 17.1405 10.9803C17.0993 11.609 17.1199 11.743 17.3879 12.2378C17.5631 12.5676 17.8517 12.918 18.1197 13.1138C18.532 13.4024 18.6453 13.4334 19.6142 13.4849C20.1914 13.5158 20.7686 13.5983 20.8923 13.6704C21.3767 13.9384 21.2839 14.732 20.7583 14.9279C20.614 14.9897 19.841 15.0309 19.0267 15.0309C17.625 15.0309 17.5425 15.0412 17.3364 15.268C17.0581 15.5669 17.0478 16.0616 17.3055 16.3811C17.4807 16.5976 17.6147 16.6285 18.3361 16.6594L19.171 16.7007V17.216C19.171 17.8344 19.4905 18.2261 19.9956 18.2261C20.5212 18.2261 20.8201 17.8344 20.8201 17.1438C20.8201 16.6182 20.8407 16.577 21.0572 16.577C21.3767 16.577 22.1806 16.0616 22.4383 15.6906C22.9433 14.9588 23.0155 14.0415 22.6341 13.2066C22.1909 12.2584 21.3251 11.8358 19.841 11.8358C19.305 11.8358 19.1298 11.7946 18.9649 11.6297C18.6866 11.3514 18.7072 10.9494 19.0164 10.6505C19.2535 10.4031 19.305 10.3928 20.851 10.3928C22.3765 10.3928 22.4383 10.3825 22.6547 10.1558C22.9639 9.82594 22.9536 9.3209 22.6238 9.00139C22.4074 8.77464 22.2837 8.74372 21.5931 8.74372H20.8201V8.22837C20.8201 7.80579 20.7686 7.65119 20.5624 7.45535C20.2635 7.14615 19.7997 7.11523 19.4699 7.39351Z" fill="#C0304F"/>
<path d="M14.378 33.1608C11.8838 33.8823 10.3893 36.459 10.9664 39.0667C11.2653 40.4169 11.523 40.7261 15.7592 44.9622C19.3563 48.5594 19.6655 48.8376 19.9953 48.8376C20.3251 48.8376 20.6343 48.5594 24.2005 44.9932C26.3134 42.8906 28.179 40.9529 28.3439 40.7055C29.3334 39.2213 29.4261 37.0878 28.5706 35.5005C28.2099 34.8512 27.2823 33.9235 26.6226 33.5628C25.2003 32.7795 23.345 32.7692 21.8505 33.5319C21.5723 33.6762 21.0363 34.0782 20.6652 34.4183L19.9953 35.0573L19.346 34.4389C18.305 33.4391 17.1197 32.9547 15.7179 32.9753C15.3263 32.9753 14.7182 33.0578 14.378 33.1608ZM16.9754 34.8306C17.4392 35.0161 17.769 35.2634 18.5833 36.0468C19.9747 37.397 20.0159 37.397 21.4073 36.0468C22.6545 34.8306 23.2214 34.5626 24.3757 34.6347C25.6023 34.7172 26.5917 35.3768 27.1792 36.5003C27.4266 36.9641 27.4678 37.1599 27.4678 37.9123C27.4678 39.3553 27.4472 39.3862 23.4481 43.375L19.9953 46.8278L16.5013 43.3234C12.5434 39.345 12.5331 39.3244 12.5228 37.9639C12.5228 37.2836 12.5743 37.0362 12.7908 36.5724C13.203 35.6963 14.0276 34.9955 14.9449 34.7069C15.4603 34.5523 16.3673 34.6141 16.9754 34.8306Z" fill="#C0304F"/>
<path d="M2.72122 35.8612C2.5357 36.0673 2.52539 36.3662 2.52539 44.4571C2.52539 52.548 2.5357 52.8469 2.72122 53.0531L2.91705 53.2695H19.9956H37.0742L37.27 53.0531C37.4555 52.8469 37.4658 52.548 37.4658 44.4571C37.4658 36.3662 37.4555 36.0673 37.27 35.8612C37.002 35.5726 36.363 35.5623 36.0744 35.8509C35.8682 36.057 35.8682 36.191 35.8682 43.8902V51.7235H19.9956H4.12296V43.8902C4.12296 36.191 4.12296 36.057 3.91682 35.8509C3.62823 35.5623 2.9892 35.5726 2.72122 35.8612Z" fill="#C0304F"/>
</svg>
